<?xml version="1.0" encoding="UTF-8" standalone="no"?>
<!DOCTYPE svg PUBLIC "-//W3C//DTD SVG 1.1//EN" "http://www.w3.org/Graphics/SVG/1.1/DTD/svg11.dtd">
<svg xmlns="http://www.w3.org/2000/svg" version="1.1" viewBox="0 0 512 512">
<g stroke-width="2.00" fill="none" stroke-linecap="butt">
<path stroke="#e2a0a3" vector-effect="non-scaling-stroke" d="
  M 369.95 84.35
  C 363.61 94.10 356.03 104.83 351.23 113.91
  Q 339.84 135.47 336.71 160.00"
/>
<path stroke="#bcbcc6" vector-effect="non-scaling-stroke" d="
  M 336.71 160.00
  L 16.68 159.94
  A 0.19 0.18 -12.3 0 1 16.51 159.84
  L 16.46 159.75"
/>
<path stroke="#f0adab" vector-effect="non-scaling-stroke" d="
  M 405.00 255.21
  C 377.25 251.19 354.81 232.62 342.50 207.96"
/>
<path stroke="#c78587" vector-effect="non-scaling-stroke" d="
  M 342.50 207.96
  Q 333.16 184.83 336.71 160.00"
/>
<path stroke="#cacace" vector-effect="non-scaling-stroke" d="
  M 342.50 207.96
  L 112.00 208.04"
/>
<path stroke="#94959e" vector-effect="non-scaling-stroke" d="
  M 112.00 208.04
  L 87.96 208.25"
/>
<path stroke="#aaacb6" vector-effect="non-scaling-stroke" d="
  M 87.96 208.25
  L 31.97 208.11"
/>
<path stroke="#aa787a" vector-effect="non-scaling-stroke" d="
  M 463.50 239.71
  Q 452.70 247.79 439.96 252.25"
/>
<path stroke="#c59396" vector-effect="non-scaling-stroke" d="
  M 439.96 252.25
  Q 428.35 255.69 416.25 256.04"
/>
<path stroke="#d2a09e" vector-effect="non-scaling-stroke" d="
  M 416.25 256.04
  L 405.00 255.21"
/>
<path stroke="#d05b57" vector-effect="non-scaling-stroke" d="
  M 405.00 255.21
  Q 405.61 254.52 405.94 254.46
  C 428.04 250.60 446.26 237.14 458.91 218.92
  C 479.84 188.78 472.89 145.60 456.86 114.75
  Q 453.79 108.85 446.42 97.72
  Q 425.29 65.80 403.96 34.00"
/>
<path stroke="#e5e5ea" vector-effect="non-scaling-stroke" d="
  M 416.25 256.04
  Q 416.00 262.01 415.77 267.96
  C 415.62 271.83 416.55 277.03 415.66 281.80
  Q 415.56 282.28 415.73 282.74
  Q 415.94 283.35 415.94 284.00
  Q 416.04 349.98 415.95 415.96"
/>
<path stroke="#d3d4da" vector-effect="non-scaling-stroke" d="
  M 415.95 415.96
  L 400.69 416.17
  A 0.51 0.51 0.0 0 0 400.18 416.68
  L 400.00 447.96"
/>
<path stroke="#e5e5ea" vector-effect="non-scaling-stroke" d="
  M 400.00 447.96
  L 320.00 447.96"
/>
<path stroke="#bcbec2" vector-effect="non-scaling-stroke" d="
  M 320.00 447.96
  L 320.00 304.55
  A 0.45 0.45 0.0 0 0 319.55 304.10
  L 295.79 304.25"
/>
<path stroke="#d3d4da" vector-effect="non-scaling-stroke" d="
  M 295.79 304.25
  Q 276.04 303.62 256.29 304.25"
/>
<path stroke="#bcbec2" vector-effect="non-scaling-stroke" d="
  M 256.29 304.25
  Q 244.02 303.59 231.75 304.29"
/>
<path stroke="#d3d4da" vector-effect="non-scaling-stroke" d="
  M 231.75 304.29
  Q 212.22 303.65 192.69 304.17
  A 0.52 0.51 -1.2 0 0 192.19 304.68
  L 192.00 447.96"
/>
<path stroke="#e5e5ea" vector-effect="non-scaling-stroke" d="
  M 192.00 447.96
  L 112.00 447.96"
/>
<path stroke="#bcbec2" vector-effect="non-scaling-stroke" d="
  M 112.00 447.96
  L 111.99 417.06
  A 1.13 1.13 0.0 0 0 110.87 415.93
  L 95.96 415.75"
/>
<path stroke="#cacace" vector-effect="non-scaling-stroke" d="
  M 95.96 415.75
  L 96.00 240.04"
/>
<path stroke="#bcbec2" vector-effect="non-scaling-stroke" d="
  M 112.00 208.04
  L 111.82 239.32
  A 0.52 0.51 -0.6 0 1 111.31 239.83
  L 96.00 240.04"
/>
<path stroke="#94959e" vector-effect="non-scaling-stroke" d="
  M 96.00 240.04
  L 87.96 239.75"
/>
<path stroke="#9da0aa" vector-effect="non-scaling-stroke" d="
  M 87.96 208.25
  L 87.96 239.75"
/>
<path stroke="#aaacb6" vector-effect="non-scaling-stroke" d="
  M 87.96 239.75
  L 71.96 240.25"
/>
<path stroke="#c5c7d2" vector-effect="non-scaling-stroke" d="
  M 71.96 240.25
  Q 59.96 239.63 47.96 240.25"
/>
<path stroke="#c5c7d2" vector-effect="non-scaling-stroke" d="
  M 439.96 415.75
  L 415.95 415.96"
/>
<path stroke="#94959e" vector-effect="non-scaling-stroke" d="
  M 464.04 416.00
  L 456.00 416.29"
/>
<path stroke="#aaacb6" vector-effect="non-scaling-stroke" d="
  M 456.00 416.29
  L 439.96 415.75"
/>
<path stroke="#bcbcc6" vector-effect="non-scaling-stroke" d="
  M 439.96 415.75
  L 439.96 252.25"
/>
<path stroke="#9da0aa" vector-effect="non-scaling-stroke" d="
  M 231.75 304.29
  Q 231.90 304.78 231.90 305.25
  Q 232.07 376.43 231.91 447.78"
/>
<path stroke="#c5c7d2" vector-effect="non-scaling-stroke" d="
  M 231.91 447.78
  L 192.00 447.96"
/>
<path stroke="#9da0aa" vector-effect="non-scaling-stroke" d="
  M 295.79 304.25
  Q 296.20 375.72 295.85 447.19
  Q 295.84 447.45 295.75 447.71"
/>
<path stroke="#c5c7d2" vector-effect="non-scaling-stroke" d="
  M 295.75 447.71
  Q 276.12 448.39 256.09 447.76"
/>
<path stroke="#afb0ba" vector-effect="non-scaling-stroke" d="
  M 320.00 447.96
  L 295.75 447.71"
/>
<path stroke="#afb0ba" vector-effect="non-scaling-stroke" d="
  M 112.00 447.96
  L 87.81 447.88"
/>
<path stroke="#bcbcc6" vector-effect="non-scaling-stroke" d="
  M 472.00 448.29
  L 472.25 495.96"
/>
<path stroke="#94959e" vector-effect="non-scaling-stroke" d="
  M 95.96 415.75
  L 87.96 416.25"
/>
<path stroke="#aaacb6" vector-effect="non-scaling-stroke" d="
  M 87.96 416.25
  L 71.99 415.65"
/>
<path stroke="#bcbcc6" vector-effect="non-scaling-stroke" d="
  M 71.99 415.65
  L 71.96 240.25"
/>
<path stroke="#9da0aa" vector-effect="non-scaling-stroke" d="
  M 256.29 304.25
  Q 256.00 305.00 256.00 305.25
  Q 255.93 376.44 256.09 447.76"
/>
<path stroke="#afb0ba" vector-effect="non-scaling-stroke" d="
  M 256.09 447.76
  Q 244.00 448.34 231.91 447.78"
/>
<path stroke="#9da0aa" vector-effect="non-scaling-stroke" d="
  M 456.00 416.29
  L 455.75 447.71"
/>
<path stroke="#c5c7d2" vector-effect="non-scaling-stroke" d="
  M 455.75 447.71
  Q 455.25 447.85 454.75 447.86
  Q 427.38 447.98 400.00 447.96"
/>
<path stroke="#c5c7d2" vector-effect="non-scaling-stroke" d="
  M 71.99 415.65
  L 47.75 416.04"
/>
<path stroke="#94959e" vector-effect="non-scaling-stroke" d="
  M 480.00 447.96
  L 472.00 448.29"
/>
<path stroke="#afb0ba" vector-effect="non-scaling-stroke" d="
  M 472.00 448.29
  L 455.75 447.71"
/>
<path stroke="#9da0aa" vector-effect="non-scaling-stroke" d="
  M 87.96 416.25
  L 87.81 447.88"
/>
<path stroke="#c5c7d2" vector-effect="non-scaling-stroke" d="
  M 87.81 447.88
  L 32.03 447.92"
/>
<path stroke="#e2a0a3" vector-effect="non-scaling-stroke" d="
  M 245.46 66.00
  Q 235.27 66.76 229.98 74.99
  C 221.51 88.18 221.80 107.10 231.82 119.42
  Q 236.44 125.10 244.25 125.71"
/>
<path stroke="#c59396" vector-effect="non-scaling-stroke" d="
  M 244.25 125.71
  C 283.05 140.22 306.25 84.44 268.97 66.79
  Q 257.97 61.59 245.46 66.00"
/>
<path stroke="#d05b57" vector-effect="non-scaling-stroke" d="
  M 244.25 125.71
  C 264.43 122.32 266.88 95.85 261.09 80.68
  Q 256.84 69.54 245.46 66.00"
/>
<path stroke="#f0adab" vector-effect="non-scaling-stroke" d="
  M 400.51 128.00
  A 0.51 0.51 0.0 0 0 400.00 128.51
  L 400.00 159.49
  A 0.51 0.51 0.0 0 1 399.49 160.00
  L 368.51 160.00
  A 0.51 0.51 0.0 0 0 368.00 160.51
  L 368.00 191.49
  A 0.51 0.51 0.0 0 0 368.51 192.00
  L 399.49 192.00
  A 0.51 0.51 0.0 0 1 400.00 192.51
  L 400.00 223.49
  A 0.51 0.51 0.0 0 0 400.51 224.00
  L 431.49 224.00
  A 0.51 0.51 0.0 0 0 432.00 223.49
  L 432.00 192.51
  A 0.51 0.51 0.0 0 1 432.51 192.00
  L 463.49 192.00
  A 0.51 0.51 0.0 0 0 464.00 191.49
  L 464.00 160.51
  A 0.51 0.51 0.0 0 0 463.49 160.00
  L 432.51 160.00
  A 0.51 0.51 0.0 0 1 432.00 159.49
  L 432.00 128.51
  A 0.51 0.51 0.0 0 0 431.49 128.00
  L 400.51 128.00"
/>
<path stroke="#d2a09e" vector-effect="non-scaling-stroke" d="
  M 328.00 271.96
  L 351.50 271.99
  A 0.51 0.50 -90.0 0 0 352.00 271.48
  L 352.00 240.60
  A 0.51 0.50 0.6 0 0 351.50 240.10
  L 327.50 240.04"
/>
<path stroke="#f0adab" vector-effect="non-scaling-stroke" d="
  M 327.50 240.04
  L 160.49 240.01
  A 0.49 0.49 0.0 0 0 160.00 240.50
  L 160.00 271.54
  A 0.45 0.44 90.0 0 0 160.44 271.99
  L 328.00 271.96"
/>
<path stroke="#d05b57" vector-effect="non-scaling-stroke" d="
  M 327.50 240.04
  C 327.79 240.73 328.00 240.87 328.00 241.68
  Q 328.00 256.82 328.00 271.96"
/>
</g>
<path fill="#d7d7e2" d="
  M 369.95 84.35
  C 363.61 94.10 356.03 104.83 351.23 113.91
  Q 339.84 135.47 336.71 160.00
  L 16.68 159.94
  A 0.19 0.18 -12.3 0 1 16.51 159.84
  L 16.46 159.75
  L 255.57 16.26
  A 0.83 0.83 0.0 0 1 256.43 16.26
  L 369.95 84.35
  Z
  M 245.46 66.00
  Q 235.27 66.76 229.98 74.99
  C 221.51 88.18 221.80 107.10 231.82 119.42
  Q 236.44 125.10 244.25 125.71
  C 283.05 140.22 306.25 84.44 268.97 66.79
  Q 257.97 61.59 245.46 66.00
  Z"
/>
<path fill="#b24e4a" d="
  M 463.50 239.71
  Q 452.70 247.79 439.96 252.25
  Q 428.35 255.69 416.25 256.04
  L 405.00 255.21
  Q 405.61 254.52 405.94 254.46
  C 428.04 250.60 446.26 237.14 458.91 218.92
  C 479.84 188.78 472.89 145.60 456.86 114.75
  Q 453.79 108.85 446.42 97.72
  Q 425.29 65.80 403.96 34.00
  L 415.63 16.55
  A 0.44 0.44 0.0 0 1 416.36 16.55
  Q 441.28 53.89 466.13 91.23
  Q 475.56 105.39 477.09 107.97
  Q 492.92 134.54 495.52 165.51
  C 498.12 196.61 487.16 220.10 463.50 239.71
  Z"
/>
<path fill="#ed6863" d="
  M 403.96 34.00
  Q 425.29 65.80 446.42 97.72
  Q 453.79 108.85 456.86 114.75
  C 472.89 145.60 479.84 188.78 458.91 218.92
  C 446.26 237.14 428.04 250.60 405.94 254.46
  Q 405.61 254.52 405.00 255.21
  C 377.25 251.19 354.81 232.62 342.50 207.96
  Q 333.16 184.83 336.71 160.00
  Q 339.84 135.47 351.23 113.91
  C 356.03 104.83 363.61 94.10 369.95 84.35
  L 403.96 34.00
  Z
  M 400.51 128.00
  A 0.51 0.51 0.0 0 0 400.00 128.51
  L 400.00 159.49
  A 0.51 0.51 0.0 0 1 399.49 160.00
  L 368.51 160.00
  A 0.51 0.51 0.0 0 0 368.00 160.51
  L 368.00 191.49
  A 0.51 0.51 0.0 0 0 368.51 192.00
  L 399.49 192.00
  A 0.51 0.51 0.0 0 1 400.00 192.51
  L 400.00 223.49
  A 0.51 0.51 0.0 0 0 400.51 224.00
  L 431.49 224.00
  A 0.51 0.51 0.0 0 0 432.00 223.49
  L 432.00 192.51
  A 0.51 0.51 0.0 0 1 432.51 192.00
  L 463.49 192.00
  A 0.51 0.51 0.0 0 0 464.00 191.49
  L 464.00 160.51
  A 0.51 0.51 0.0 0 0 463.49 160.00
  L 432.51 160.00
  A 0.51 0.51 0.0 0 1 432.00 159.49
  L 432.00 128.51
  A 0.51 0.51 0.0 0 0 431.49 128.00
  L 400.51 128.00
  Z"
/>
<path fill="#b24e4a" d="
  M 244.25 125.71
  C 264.43 122.32 266.88 95.85 261.09 80.68
  Q 256.84 69.54 245.46 66.00
  Q 257.97 61.59 268.97 66.79
  C 306.25 84.44 283.05 140.22 244.25 125.71
  Z"
/>
<path fill="#ed6863" d="
  M 245.46 66.00
  Q 256.84 69.54 261.09 80.68
  C 266.88 95.85 264.43 122.32 244.25 125.71
  Q 236.44 125.10 231.82 119.42
  C 221.80 107.10 221.51 88.18 229.98 74.99
  Q 235.27 66.76 245.46 66.00
  Z"
/>
<path fill="#f2f2f2" d="
  M 400.51 128.00
  L 431.49 128.00
  A 0.51 0.51 0.0 0 1 432.00 128.51
  L 432.00 159.49
  A 0.51 0.51 0.0 0 0 432.51 160.00
  L 463.49 160.00
  A 0.51 0.51 0.0 0 1 464.00 160.51
  L 464.00 191.49
  A 0.51 0.51 0.0 0 1 463.49 192.00
  L 432.51 192.00
  A 0.51 0.51 0.0 0 0 432.00 192.51
  L 432.00 223.49
  A 0.51 0.51 0.0 0 1 431.49 224.00
  L 400.51 224.00
  A 0.51 0.51 0.0 0 1 400.00 223.49
  L 400.00 192.51
  A 0.51 0.51 0.0 0 0 399.49 192.00
  L 368.51 192.00
  A 0.51 0.51 0.0 0 1 368.00 191.49
  L 368.00 160.51
  A 0.51 0.51 0.0 0 1 368.51 160.00
  L 399.49 160.00
  A 0.51 0.51 0.0 0 0 400.00 159.49
  L 400.00 128.51
  A 0.51 0.51 0.0 0 1 400.51 128.00
  Z"
/>
<path fill="#a1a1aa" d="
  M 16.46 159.75
  L 16.51 159.84
  A 0.19 0.18 -12.3 0 0 16.68 159.94
  L 336.71 160.00
  Q 333.16 184.83 342.50 207.96
  L 112.00 208.04
  L 87.96 208.25
  L 31.97 208.11
  L 16.60 207.89
  A 0.61 0.61 0.0 0 1 16.00 207.28
  L 16.00 160.71
  A 1.13 1.11 65.4 0 1 16.26 159.99
  L 16.46 159.75
  Z"
/>
<path fill="#b3b6c2" d="
  M 87.96 208.25
  L 87.96 239.75
  L 71.96 240.25
  Q 59.96 239.63 47.96 240.25
  L 32.94 240.07
  A 0.96 0.96 0.0 0 1 31.99 239.11
  L 31.97 208.11
  L 87.96 208.25
  Z"
/>
<path fill="#868992" d="
  M 112.00 208.04
  L 111.82 239.32
  A 0.52 0.51 -0.6 0 1 111.31 239.83
  L 96.00 240.04
  L 87.96 239.75
  L 87.96 208.25
  L 112.00 208.04
  Z"
/>
<path fill="#f2f2f2" d="
  M 342.50 207.96
  C 354.81 232.62 377.25 251.19 405.00 255.21
  L 416.25 256.04
  Q 416.00 262.01 415.77 267.96
  C 415.62 271.83 416.55 277.03 415.66 281.80
  Q 415.56 282.28 415.73 282.74
  Q 415.94 283.35 415.94 284.00
  Q 416.04 349.98 415.95 415.96
  L 400.69 416.17
  A 0.51 0.51 0.0 0 0 400.18 416.68
  L 400.00 447.96
  L 320.00 447.96
  L 320.00 304.55
  A 0.45 0.45 0.0 0 0 319.55 304.10
  L 295.79 304.25
  Q 276.04 303.62 256.29 304.25
  Q 244.02 303.59 231.75 304.29
  Q 212.22 303.65 192.69 304.17
  A 0.52 0.51 -1.2 0 0 192.19 304.68
  L 192.00 447.96
  L 112.00 447.96
  L 111.99 417.06
  A 1.13 1.13 0.0 0 0 110.87 415.93
  L 95.96 415.75
  L 96.00 240.04
  L 111.31 239.83
  A 0.52 0.51 -0.6 0 0 111.82 239.32
  L 112.00 208.04
  L 342.50 207.96
  Z
  M 328.00 271.96
  L 351.50 271.99
  A 0.51 0.50 -90.0 0 0 352.00 271.48
  L 352.00 240.60
  A 0.51 0.50 0.6 0 0 351.50 240.10
  L 327.50 240.04
  L 160.49 240.01
  A 0.49 0.49 0.0 0 0 160.00 240.50
  L 160.00 271.54
  A 0.45 0.44 90.0 0 0 160.44 271.99
  L 328.00 271.96
  Z"
/>
<path fill="#a1a1aa" d="
  M 87.96 239.75
  L 96.00 240.04
  L 95.96 415.75
  L 87.96 416.25
  L 71.99 415.65
  L 71.96 240.25
  L 87.96 239.75
  Z"
/>
<path fill="#a1a1aa" d="
  M 463.50 239.71
  L 463.75 240.10
  A 1.65 1.64 29.2 0 1 464.00 240.97
  L 464.04 416.00
  L 456.00 416.29
  L 439.96 415.75
  L 439.96 252.25
  Q 452.70 247.79 463.50 239.71
  Z"
/>
<path fill="#d7d7e2" d="
  M 71.96 240.25
  L 71.99 415.65
  L 47.75 416.04
  L 47.84 415.99
  A 0.18 0.18 0.0 0 0 47.94 415.83
  L 47.96 240.25
  Q 59.96 239.63 71.96 240.25
  Z"
/>
<path fill="#ed6863" d="
  M 327.50 240.04
  C 327.79 240.73 328.00 240.87 328.00 241.68
  Q 328.00 256.82 328.00 271.96
  L 160.44 271.99
  A 0.45 0.44 90.0 0 1 160.00 271.54
  L 160.00 240.50
  A 0.49 0.49 0.0 0 1 160.49 240.01
  L 327.50 240.04
  Z"
/>
<path fill="#b24e4a" d="
  M 327.50 240.04
  L 351.50 240.10
  A 0.51 0.50 0.6 0 1 352.00 240.60
  L 352.00 271.48
  A 0.51 0.50 -90.0 0 1 351.50 271.99
  L 328.00 271.96
  Q 328.00 256.82 328.00 241.68
  C 328.00 240.87 327.79 240.73 327.50 240.04
  Z"
/>
<path fill="#d7d7e2" d="
  M 439.96 252.25
  L 439.96 415.75
  L 415.95 415.96
  Q 416.04 349.98 415.94 284.00
  Q 415.94 283.35 415.73 282.74
  Q 415.56 282.28 415.66 281.80
  C 416.55 277.03 415.62 271.83 415.77 267.96
  Q 416.00 262.01 416.25 256.04
  Q 428.35 255.69 439.96 252.25
  Z"
/>
<path fill="#b3b6c2" d="
  M 231.75 304.29
  Q 231.90 304.78 231.90 305.25
  Q 232.07 376.43 231.91 447.78
  L 192.00 447.96
  L 192.19 304.68
  A 0.52 0.51 -1.2 0 1 192.69 304.17
  Q 212.22 303.65 231.75 304.29
  Z"
/>
<path fill="#868992" d="
  M 256.29 304.25
  Q 256.00 305.00 256.00 305.25
  Q 255.93 376.44 256.09 447.76
  Q 244.00 448.34 231.91 447.78
  Q 232.07 376.43 231.90 305.25
  Q 231.90 304.78 231.75 304.29
  Q 244.02 303.59 256.29 304.25
  Z"
/>
<path fill="#b3b6c2" d="
  M 295.79 304.25
  Q 296.20 375.72 295.85 447.19
  Q 295.84 447.45 295.75 447.71
  Q 276.12 448.39 256.09 447.76
  Q 255.93 376.44 256.00 305.25
  Q 256.00 305.00 256.29 304.25
  Q 276.04 303.62 295.79 304.25
  Z"
/>
<path fill="#868992" d="
  M 320.00 447.96
  L 295.75 447.71
  Q 295.84 447.45 295.85 447.19
  Q 296.20 375.72 295.79 304.25
  L 319.55 304.10
  A 0.45 0.45 0.0 0 1 320.00 304.55
  L 320.00 447.96
  Z"
/>
<path fill="#b3b6c2" d="
  M 71.99 415.65
  L 87.96 416.25
  L 87.81 447.88
  L 32.03 447.92
  L 32.01 416.50
  A 0.49 0.49 0.0 0 1 32.50 416.01
  L 47.75 416.04
  L 71.99 415.65
  Z"
/>
<path fill="#868992" d="
  M 95.96 415.75
  L 110.87 415.93
  A 1.13 1.13 0.0 0 1 111.99 417.06
  L 112.00 447.96
  L 87.81 447.88
  L 87.96 416.25
  L 95.96 415.75
  Z"
/>
<path fill="#b3b6c2" d="
  M 439.96 415.75
  L 456.00 416.29
  L 455.75 447.71
  Q 455.25 447.85 454.75 447.86
  Q 427.38 447.98 400.00 447.96
  L 400.18 416.68
  A 0.51 0.51 0.0 0 1 400.69 416.17
  L 415.95 415.96
  L 439.96 415.75
  Z"
/>
<path fill="#868992" d="
  M 464.04 416.00
  L 479.44 416.06
  A 0.50 0.50 0.0 0 1 479.94 416.56
  L 480.00 447.96
  L 472.00 448.29
  L 455.75 447.71
  L 456.00 416.29
  L 464.04 416.00
  Z"
/>
<path fill="#d7d7e2" d="
  M 32.03 447.92
  L 87.81 447.88
  L 112.00 447.96
  L 192.00 447.96
  L 231.91 447.78
  Q 244.00 448.34 256.09 447.76
  Q 276.12 448.39 295.75 447.71
  L 320.00 447.96
  L 400.00 447.96
  Q 427.38 447.98 454.75 447.86
  Q 455.25 447.85 455.75 447.71
  L 472.00 448.29
  L 472.25 495.96
  L 16.44 495.99
  A 0.45 0.44 90.0 0 1 16.00 495.54
  L 16.00 448.55
  A 0.62 0.62 0.0 0 1 16.62 447.93
  L 32.03 447.92
  Z"
/>
<path fill="#a1a1aa" d="
  M 480.00 447.96
  L 495.51 448.04
  A 0.49 0.49 0.0 0 1 496.00 448.53
  L 496.00 495.49
  A 0.50 0.49 -90.0 0 1 495.51 495.99
  L 472.25 495.96
  L 472.00 448.29
  L 480.00 447.96
  Z"
/>
</svg>
